<svg width="1329" height="852" viewBox="0 0 1329 852" fill="none" xmlns="http://www.w3.org/2000/svg">
<g opacity="0.1">
<circle cx="1048" cy="203" r="1.5" fill="#FFF"/>
<circle cx="1160" cy="315" r="1" fill="#FFF"/>
<circle cx="768" cy="387" r="2" fill="#FFF"/>
<circle cx="696" cy="675" r="1.5" fill="#FFF"/>
<circle cx="1327" cy="723" r="0.5" fill="#FFF"/>
<circle cx="1176.57" cy="15.7321" r="2" transform="rotate(30 1176.57 15.7321)" fill="#FFF"/>
<circle cx="1217.57" cy="168.727" r="1.5" transform="rotate(30 1217.57 168.727)" fill="#FFF"/>
<circle cx="842.086" cy="35.0807" r="0.5" transform="rotate(30 842.086 35.0807)" fill="#FFF"/>
<circle cx="635.732" cy="248.496" r="2" transform="rotate(30 635.732 248.496)" fill="#FFF"/>
<circle cx="761.434" cy="542.773" r="1.5" transform="rotate(30 761.434 542.773)" fill="#FFF"/>
<circle cx="1158.19" cy="605.565" r="0.5" transform="rotate(30 1158.19 605.565)" fill="#FFF"/>

<!-- Yeni baloncuklar -->
<circle cx="900" cy="100" r="1.5" fill="#FFF"/>
<circle cx="400" cy="500" r="1" fill="#FFF"/>
<circle cx="1000" cy="300" r="2" fill="#FFF"/>
<circle cx="200" cy="200" r="1.5" fill="#FFF"/>
<circle cx="500" cy="700" r="0.5" fill="#FFF"/>
<circle cx="800" cy="600" r="2" transform="rotate(30 800 600)" fill="#FFF"/>
<circle cx="1100" cy="400" r="1.5" transform="rotate(30 1100 400)" fill="#FFF"/>
<circle cx="1200" cy="700" r="0.5" transform="rotate(30 1200 700)" fill="#FFF"/>
<circle cx="300" cy="100" r="2" transform="rotate(30 300 100)" fill="#FFF"/>
<circle cx="100" cy="400" r="1.5" transform="rotate(30 100 400)" fill="#FFF"/>

<!-- Yeni baloncuklar -->
<circle cx="700" cy="300" r="1.5" fill="#FFF"/>
<circle cx="100" cy="100" r="1" fill="#FFF"/>
<circle cx="1200" cy="500" r="2" fill="#FFF"/>
<circle cx="800" cy="200" r="1.5" fill="#FFF"/>
<circle cx="500" cy="400" r="0.5" fill="#FFF"/>
<circle cx="300" cy="600" r="2" transform="rotate(30 300 600)" fill="#FFF"/>
<circle cx="1000" cy="700" r="1.5" transform="rotate(30 1000 700)" fill="#FFF"/>
<circle cx="1100" cy="100" r="1" transform="rotate(30 1100 100)" fill="#FFF"/>
<circle cx="400" cy="300" r="2" transform="rotate(30 400 300)" fill="#FFF"/>
<circle cx="1200" cy="600" r="1.5" transform="rotate(30 1200 600)" fill="#FFF"/>

<!-- Yeni baloncuklar -->
<circle cx="100" cy="300" r="1.5" fill="#FFF"/>
<circle cx="800" cy="100" r="1" fill="#FFF"/>
<circle cx="500" cy="500" r="2" fill="#FFF"/>
<circle cx="1200" cy="200" r="1.5" fill="#FFF"/>
<circle cx="700" cy="400" r="0.5" fill="#FFF"/>
<circle cx="1100" cy="600" r="2" transform="rotate(30 1100 600)" fill="#FFF"/>
<circle cx="300" cy="700" r="1.5" transform="rotate(30 300 700)" fill="#FFF"/>
<circle cx="200" cy="100" r="1" transform="rotate(30 200 100)" fill="#FFF"/>
<circle cx="1000" cy="300" r="2" transform="rotate(30 1000 300)" fill="#FFF"/>
<circle cx="400" cy="600" r="1.5" transform="rotate(30 400 600)" fill="#FFF"/>

<!-- Yeni baloncuklar -->
<circle cx="500" cy="300" r="1.5" fill="#FFF"/>
<circle cx="1200" cy="100" r="1" fill="#FFF"/>
<circle cx="700" cy="500" r="2" fill="#FFF"/>
<circle cx="100" cy="200" r="1.5" fill="#FFF"/>
<circle cx="800" cy="400" r="0.5" fill="#FFF"/>
<circle cx="300" cy="600" r="2" transform="rotate(30 300 600)" fill="#FFF"/>
<circle cx="1100" cy="700" r="1.5" transform="rotate(30 1100 700)" fill="#FFF"/>
<circle cx="1000" cy="100" r="1" transform="rotate(30 1000 100)" fill="#FFF"/>
<circle cx="400" cy="300" r="2" transform="rotate(30 400 300)" fill="#FFF"/>
<circle cx="1200" cy="600" r="1.5" transform="rotate(30 1200 600)" fill="#FFF"/>

<!-- Yeni baloncuklar -->
<circle cx="800" cy="300" r="1.5" fill="#FFF"/>
<circle cx="300" cy="100" r="1" fill="#FFF"/>
<circle cx="1000" cy="500" r="2" fill="#FFF"/>
<circle cx="400" cy="200" r="1.5" fill="#FFF"/>
<circle cx="700" cy="400" r="0.5" fill="#FFF"/>
<circle cx="1200" cy="600" r="2" transform="rotate(30 1200 600)" fill="#FFF"/>
<circle cx="200" cy="700" r="1.5" transform="rotate(30 200 700)" fill="#FFF"/>
<circle cx="100" cy="100" r="1" transform="rotate(30 100 100)" fill="#FFF"/>
<circle cx="1100" cy="300" r="2" transform="rotate(30 1100 300)" fill="#FFF"/>
<circle cx="500" cy="600" r="1.5" transform="rotate(30 500 600)" fill="#FFF"/>
</g>
</svg>
